<svg xmlns="http://www.w3.org/2000/svg" viewBox="0 0 186.32 202.41"><defs><style>.cls-1{fill:#0dd1d1;}.cls-2{fill:#04841f;}.cls-3{fill:#03c03c;}</style></defs><g id="Layer_2" data-name="Layer 2"><g id="Art"><polygon class="cls-1" points="79.1 202.41 93.16 202.41 107.21 202.41 107.4 197.48 78.91 197.48 79.1 202.41"/><polygon class="cls-2" points="53.21 111.95 38.51 93.63 31.57 129.28 67.64 187.47 67.04 172.04 53.21 111.95"/><polygon class="cls-2" points="133.1 111.95 119.28 172.03 118.68 187.47 154.74 129.28 147.81 93.63 133.1 111.95"/><path class="cls-3" d="M124.75,47.57H61.56L42,80.61l32.9,41a5.54,5.54,0,0,1,1.19,3.19l2.4,61.82h29.33l2.41-61.82a5.4,5.4,0,0,1,1.19-3.19l32.89-41Z"/><path class="cls-1" d="M15,69.12V0L0,77.37V107l22,14.37,7.4-38.09L17,73.37A5.42,5.42,0,0,1,15,69.12Z"/><path class="cls-1" d="M171.36,69.12a5.42,5.42,0,0,1-2.05,4.25l-12.43,9.91,7.4,38.09,22-14.37V77.37L171.36,0Z"/></g></g></svg>