<?xml version="1.0" standalone="no"?>
<!DOCTYPE svg PUBLIC "-//W3C//DTD SVG 20010904//EN"
 "http://www.w3.org/TR/2001/REC-SVG-20010904/DTD/svg10.dtd">
<svg version="1.0" xmlns="http://www.w3.org/2000/svg"
 width="2000.000000pt" height="2000.000000pt" viewBox="0 0 2000.000000 2000.000000"
 preserveAspectRatio="xMidYMid meet">
<metadata>
Created by potrace 1.14, written by Peter Selinger 2001-2017
</metadata>
<g transform="translate(0.000000,2000.000000) scale(0.100000,-0.100000)"
fill="#000000" stroke="none">
<path d="M2556 19497 c-10 -50 -19 -101 -21 -112 -5 -37 -16 -90 -21 -108 -3
-11 -7 -29 -9 -40 -3 -25 -10 -63 -30 -162 -8 -38 -19 -97 -25 -130 -6 -33
-13 -69 -15 -80 -2 -11 -6 -32 -9 -48 -3 -15 -7 -35 -10 -45 -3 -9 -7 -33 -10
-52 -3 -19 -19 -105 -36 -190 -17 -85 -33 -170 -36 -189 -8 -46 -12 -70 -18
-89 -3 -9 -7 -33 -10 -52 -5 -31 -25 -137 -41 -210 -4 -23 -11 -59 -21 -115
-2 -11 -10 -54 -19 -95 -8 -41 -17 -86 -19 -100 -36 -187 -61 -316 -91 -470
-45 -233 -84 -436 -91 -475 -3 -16 -9 -48 -14 -70 -5 -22 -12 -56 -15 -75 -3
-19 -21 -111 -40 -205 -18 -93 -36 -183 -38 -200 -3 -16 -10 -55 -16 -85 -6
-30 -13 -66 -16 -80 -3 -14 -23 -117 -45 -230 -21 -113 -42 -221 -45 -240 -3
-19 -8 -42 -10 -50 -2 -8 -6 -28 -9 -44 -3 -16 -10 -52 -15 -80 -6 -28 -13
-62 -15 -76 -7 -37 -75 -391 -81 -420 -11 -55 -17 -86 -20 -105 -2 -11 -10
-54 -19 -95 -17 -85 -74 -380 -82 -425 -3 -16 -18 -95 -34 -175 -16 -80 -38
-194 -49 -255 -12 -60 -23 -121 -26 -135 -3 -14 -14 -72 -25 -130 -11 -58 -23
-116 -25 -130 -3 -14 -7 -37 -10 -51 -3 -14 -12 -61 -20 -105 -9 -43 -18 -90
-21 -104 -2 -14 -18 -92 -34 -175 -16 -82 -31 -163 -34 -179 -3 -16 -10 -52
-16 -80 -6 -28 -12 -62 -15 -76 -23 -119 -37 -190 -41 -220 -3 -19 -12 -63
-20 -98 -12 -53 -14 -287 -14 -1480 l0 -1418 32 -19 c37 -21 268 -170 283
-182 10 -9 30 -21 243 -159 67 -43 240 -156 385 -251 144 -94 309 -202 367
-239 58 -38 191 -124 295 -192 105 -69 213 -139 240 -157 28 -18 92 -60 144
-94 91 -60 103 -64 107 -38 1 7 30 154 64 327 34 173 64 326 66 340 4 21 16
85 39 200 3 14 7 39 10 55 3 17 8 41 10 55 3 14 7 35 10 48 2 13 20 103 39
200 20 97 38 188 40 202 3 14 16 86 31 160 14 74 28 146 30 160 2 14 25 129
50 255 25 127 48 241 50 255 2 14 25 129 49 255 25 127 47 241 50 255 2 14 7
36 10 50 3 14 8 36 10 50 3 14 10 50 15 80 6 30 13 66 16 80 3 14 7 36 10 50
2 14 7 36 9 50 3 14 16 84 31 155 14 72 28 145 31 164 3 18 8 43 10 55 21 90
22 87 -57 148 -41 31 -84 65 -95 75 -12 10 -36 29 -54 43 -18 14 -38 30 -44
35 -6 6 -29 23 -51 40 -22 16 -49 37 -60 47 -11 9 -204 164 -430 344 -225 180
-418 336 -429 348 -52 60 -103 152 -123 224 -4 15 -10 1522 -13 3349 -5 3267
-5 3321 -24 3230z"/>
<path d="M17415 16272 l-1 -3297 -23 -74 c-24 -80 -67 -155 -122 -212 -19 -20
-137 -118 -264 -219 -126 -100 -246 -195 -265 -210 -19 -16 -107 -86 -196
-157 -89 -70 -179 -142 -200 -159 -21 -18 -68 -55 -104 -83 -36 -28 -72 -57
-80 -64 -40 -32 -115 -91 -118 -93 -2 -1 17 -105 41 -231 25 -125 48 -241 51
-258 4 -26 9 -54 31 -155 2 -13 7 -42 11 -64 3 -22 7 -43 9 -46 2 -3 6 -21 9
-40 3 -19 19 -103 35 -186 17 -82 32 -163 35 -180 3 -16 19 -96 35 -179 43
-219 62 -316 67 -350 3 -16 9 -46 14 -65 5 -20 12 -51 14 -70 3 -19 8 -46 10
-60 3 -14 8 -36 10 -50 77 -398 151 -776 166 -850 20 -100 119 -609 126 -647
10 -56 12 -70 18 -93 3 -14 8 -38 10 -54 3 -16 7 -31 10 -33 2 -3 64 34 138
82 73 48 192 125 263 172 158 103 329 214 535 349 85 56 200 130 255 166 162
105 361 235 500 327 72 47 134 88 138 90 11 4 139 88 153 100 6 5 24 16 40 24
16 8 38 24 49 34 20 19 20 31 20 1439 0 780 -3 1424 -7 1429 -3 6 -9 29 -12
51 -4 22 -9 51 -11 64 -5 22 -24 121 -40 200 -3 14 -16 86 -30 160 -14 74 -32
167 -40 205 -8 39 -37 189 -65 335 -28 146 -55 285 -60 310 -5 25 -18 95 -30
155 -11 61 -22 119 -24 130 -5 21 -45 225 -52 260 -2 11 -13 70 -24 130 -12
61 -23 121 -26 135 -3 14 -7 34 -9 45 -2 11 -9 45 -15 75 -6 30 -13 66 -15 80
-6 38 -15 83 -20 100 -2 8 -7 31 -10 50 -5 30 -45 241 -125 655 -11 55 -21
111 -24 125 -2 14 -7 36 -10 50 -3 14 -8 36 -10 50 -6 39 -35 188 -53 269 -8
41 -16 84 -18 95 -1 12 -17 95 -35 186 -17 91 -34 176 -37 190 -2 14 -15 80
-29 148 -13 68 -26 138 -29 155 -3 18 -10 52 -15 77 -5 25 -32 162 -59 305
-62 319 -60 310 -66 340 -8 42 -15 77 -30 155 -17 89 -33 175 -40 210 -3 14
-7 36 -10 50 -3 14 -7 36 -10 50 -3 14 -8 39 -10 55 -5 29 -35 181 -55 280
-14 66 -16 82 -25 135 -4 25 -11 61 -16 80 -8 34 -57 284 -63 325 -5 34 -46
248 -56 290 -5 22 -11 54 -14 71 -3 17 -19 98 -35 180 -16 82 -32 170 -36 197
-4 26 -10 49 -14 51 -3 2 -6 -1479 -6 -3292z"/>
<path d="M6992 15076 c-5 -6 -44 -72 -87 -146 -43 -74 -84 -142 -91 -150 -6
-8 -24 -37 -39 -65 -14 -27 -40 -72 -57 -100 -17 -27 -39 -63 -48 -80 -29 -51
-140 -237 -310 -525 -138 -232 -250 -422 -295 -498 -6 -9 -39 -66 -75 -127
-36 -60 -69 -118 -75 -127 -9 -17 -132 -223 -266 -448 -31 -52 -66 -111 -77
-130 -27 -48 -218 -370 -334 -565 -92 -154 -95 -161 -79 -182 19 -26 689 -859
713 -888 9 -11 87 -108 172 -215 86 -107 162 -202 169 -210 6 -8 147 -184 312
-390 165 -206 302 -377 305 -380 3 -3 76 -93 161 -200 247 -307 260 -324 277
-345 10 -11 33 -40 52 -65 18 -25 48 -61 65 -81 33 -39 33 -39 120 -149 32
-41 61 -77 65 -80 3 -3 122 -151 265 -330 142 -179 264 -330 270 -337 39 -46
182 -228 198 -253 33 -50 66 -163 71 -239 3 -42 8 -146 11 -231 3 -85 8 -204
10 -265 3 -60 7 -171 10 -245 9 -242 15 -403 21 -530 3 -69 7 -177 9 -240 2
-63 6 -176 10 -250 3 -74 7 -189 10 -255 7 -203 15 -425 20 -540 3 -60 7 -175
10 -255 3 -80 7 -194 10 -255 12 -287 19 -478 30 -780 3 -82 7 -199 10 -260 6
-146 16 -388 20 -500 12 -337 16 -451 20 -532 3 -50 7 -165 11 -255 3 -90 7
-203 9 -253 2 -49 5 -120 5 -157 l2 -68 32 -1 c136 -3 2747 -1 2751 2 4 5 8
78 20 394 3 83 8 200 10 260 3 61 7 178 10 260 3 83 8 204 10 270 3 66 8 179
10 250 3 72 7 184 10 250 5 120 12 296 20 520 3 66 7 181 10 255 3 74 7 191
10 260 3 69 7 184 10 255 13 342 16 407 20 505 2 58 7 173 10 255 3 83 8 202
10 265 2 63 7 180 10 260 8 210 15 389 20 515 3 61 7 184 10 275 3 91 8 208
10 260 3 52 7 163 10 245 13 377 21 437 75 532 25 44 188 254 447 573 7 8 54
67 105 130 51 63 118 147 148 185 30 39 57 72 60 75 3 3 21 25 40 50 19 25 48
61 65 81 51 60 69 82 100 124 29 38 58 75 80 99 6 6 172 214 370 461 197 248
362 452 365 455 3 3 57 70 120 150 63 80 117 147 121 150 3 3 41 50 85 105 43
55 84 107 91 115 7 8 36 44 64 80 28 36 66 83 84 105 18 22 85 105 149 185 64
80 122 152 129 160 6 9 75 94 152 190 77 96 145 182 152 190 185 225 242 303
234 318 -5 9 -60 103 -121 207 -62 105 -118 199 -124 210 -14 24 -73 124 -86
145 -52 84 -140 233 -140 236 0 3 -17 33 -39 67 -21 34 -97 161 -168 282 -303
513 -430 728 -503 850 -42 72 -137 231 -210 355 -73 124 -142 241 -154 260
-11 19 -28 47 -36 61 -8 14 -62 106 -120 203 -58 97 -113 191 -124 210 l-18
34 -2999 0 c-2227 0 -3001 -3 -3007 -12z"/>
<path d="M4802 10668 c-6 -29 -14 -69 -17 -88 -3 -19 -10 -51 -15 -70 -5 -19
-11 -51 -14 -70 -3 -19 -14 -81 -25 -138 -12 -56 -23 -117 -26 -135 -3 -17
-10 -48 -15 -67 -5 -19 -11 -51 -13 -70 -3 -19 -22 -118 -41 -220 -20 -102
-39 -196 -41 -210 -3 -14 -8 -36 -11 -50 -11 -52 -35 -175 -40 -204 -2 -17
-11 -62 -19 -101 -8 -38 -17 -86 -20 -105 -3 -19 -10 -51 -15 -70 -5 -19 -11
-51 -14 -70 -3 -19 -14 -80 -25 -135 -11 -55 -23 -113 -25 -130 -3 -16 -28
-145 -57 -285 -28 -140 -52 -264 -53 -275 -2 -11 -8 -45 -14 -75 -7 -30 -14
-68 -17 -85 -2 -16 -13 -73 -24 -125 -11 -52 -22 -111 -25 -130 -6 -35 -11
-64 -21 -110 -13 -61 -36 -178 -41 -210 -3 -19 -9 -50 -14 -68 -9 -33 9 -70
115 -232 19 -30 112 -179 166 -268 9 -15 99 -160 199 -322 101 -162 199 -321
219 -353 20 -32 43 -69 51 -82 8 -13 41 -66 72 -117 32 -51 85 -136 117 -188
33 -52 71 -113 84 -135 13 -22 48 -78 77 -125 29 -47 64 -103 77 -125 27 -45
447 -722 463 -745 5 -8 44 -71 86 -140 76 -124 97 -159 146 -235 14 -22 92
-148 174 -280 81 -132 178 -289 216 -348 37 -60 68 -111 68 -113 0 -3 20 -35
44 -72 24 -37 97 -152 161 -257 64 -104 127 -206 140 -225 31 -48 267 -430
281 -455 6 -11 80 -130 164 -265 84 -135 160 -257 169 -272 42 -71 123 -198
125 -198 2 0 2 21 0 48 -2 47 -13 338 -19 532 -2 58 -6 166 -10 240 -3 74 -8
196 -10 270 -3 74 -7 188 -10 253 -2 67 -13 154 -24 202 -12 47 -23 95 -25
107 -4 24 -164 718 -196 853 -11 44 -29 123 -40 175 -12 52 -32 140 -45 195
-13 55 -26 111 -29 125 -3 14 -23 104 -46 200 -50 216 -76 331 -99 435 -10 44
-28 123 -41 175 -12 52 -23 102 -25 110 -2 8 -65 281 -140 605 -75 325 -138
599 -140 610 -1 11 -13 61 -25 110 -12 50 -23 98 -25 109 -3 10 -18 80 -36
155 -17 75 -32 143 -34 151 -11 51 -34 149 -85 364 -11 46 -21 92 -23 102 -2
11 -7 30 -10 44 -3 14 -23 97 -43 185 -20 88 -59 257 -86 375 -27 118 -51 222
-53 230 -2 8 -13 57 -25 109 l-22 94 -177 221 c-97 122 -178 223 -181 226 -3
3 -32 39 -65 80 -33 41 -67 84 -77 95 -9 11 -54 67 -100 125 -45 58 -90 114
-99 125 -10 11 -66 81 -125 155 -60 74 -114 142 -121 150 -7 8 -110 137 -229
285 -119 149 -217 271 -218 273 -2 1 -8 -22 -14 -50z"/>
<path d="M15128 10656 c-26 -33 -59 -74 -73 -91 -20 -25 -311 -388 -607 -758
-35 -43 -68 -84 -73 -90 -6 -7 -28 -34 -50 -62 -22 -27 -42 -52 -45 -55 -3 -3
-115 -142 -249 -310 -266 -331 -245 -296 -287 -485 -8 -38 -17 -77 -19 -85 -2
-8 -12 -53 -23 -100 -28 -117 -52 -221 -56 -245 -2 -11 -15 -67 -29 -125 -14
-58 -29 -121 -33 -140 -4 -19 -8 -37 -9 -40 -1 -3 -7 -32 -15 -65 -8 -33 -14
-62 -15 -65 -1 -3 -5 -21 -9 -40 -4 -19 -21 -89 -36 -155 -16 -66 -31 -131
-33 -145 -3 -14 -12 -54 -21 -90 -13 -57 -51 -218 -61 -260 -2 -8 -13 -58 -25
-110 -25 -112 -24 -106 -45 -195 -17 -71 -21 -90 -30 -135 -2 -14 -11 -52 -20
-85 -22 -90 -95 -404 -101 -439 -2 -17 -11 -56 -19 -86 -8 -30 -37 -156 -66
-280 -28 -124 -68 -299 -89 -390 -21 -91 -41 -176 -44 -190 -2 -14 -12 -56
-21 -95 -9 -38 -18 -77 -20 -85 -2 -9 -33 -146 -70 -305 -37 -160 -69 -301
-71 -315 -3 -14 -6 -30 -9 -37 -2 -6 -20 -83 -40 -170 -20 -87 -57 -246 -82
-353 -56 -241 -53 -230 -58 -260 -3 -14 -9 -41 -15 -60 -16 -57 -78 -333 -84
-376 -3 -21 -8 -106 -11 -189 -2 -82 -7 -204 -10 -270 -2 -66 -7 -185 -10
-265 -3 -80 -8 -192 -10 -250 -2 -58 -7 -181 -10 -275 -4 -93 -7 -172 -7 -175
-3 -43 10 -31 63 55 33 55 91 148 127 207 138 221 207 333 212 343 3 5 21 35
41 65 30 46 85 136 160 258 9 15 121 196 249 402 128 206 308 497 400 645 92
149 232 374 310 500 79 127 184 296 234 378 106 172 205 331 260 419 86 138
252 404 261 420 26 45 642 1040 679 1098 13 19 43 67 67 107 46 75 107 173
241 388 134 215 123 168 84 367 -19 95 -53 270 -75 388 -23 118 -48 247 -56
285 -18 89 -92 470 -100 512 -3 18 -15 79 -26 135 -11 57 -22 112 -24 123 -2
18 -19 100 -45 230 -13 64 -18 87 -30 155 -13 72 -18 95 -30 156 -6 28 -13 64
-16 80 -3 16 -7 36 -9 44 -2 8 -7 31 -10 50 -3 19 -21 114 -40 210 -39 201
-115 593 -122 630 -2 14 -8 44 -14 68 -5 23 -12 59 -15 80 -10 63 -17 63 -66
-2z"/>
<path d="M8647 793 c7 -171 12 -300 12 -345 l1 -48 1335 0 1335 0 1 28 c1 31
4 94 13 300 l6 142 -1353 0 -1354 0 4 -77z"/>
</g>
</svg>
